<mxfile host="app.diagrams.net" agent="Mozilla/5.0 (Windows NT 10.0; Win64; x64) AppleWebKit/537.36 (KHTML, like Gecko) Chrome/132.0.0.0 Safari/537.36 Edg/132.0.0.0" version="26.0.7">
  <diagram name="Page-1" id="4YrAdiVkWdqYPJvzFATW">
    <mxGraphModel dx="2505" dy="888" grid="1" gridSize="10" guides="1" tooltips="1" connect="1" arrows="1" fold="1" page="1" pageScale="1" pageWidth="827" pageHeight="1169" math="0" shadow="0">
      <root>
        <mxCell id="0" />
        <mxCell id="1" parent="0" />
        <mxCell id="r-9AEfIxWcx4-3-EoZzo-4" value="" style="edgeStyle=orthogonalEdgeStyle;rounded=0;orthogonalLoop=1;jettySize=auto;html=1;" parent="1" source="r-9AEfIxWcx4-3-EoZzo-1" target="r-9AEfIxWcx4-3-EoZzo-3" edge="1">
          <mxGeometry relative="1" as="geometry" />
        </mxCell>
        <mxCell id="r-9AEfIxWcx4-3-EoZzo-1" value="unwindOp" style="rounded=0;whiteSpace=wrap;html=1;" parent="1" vertex="1">
          <mxGeometry x="75" y="100" width="120" height="60" as="geometry" />
        </mxCell>
        <mxCell id="r-9AEfIxWcx4-3-EoZzo-7" value="" style="edgeStyle=orthogonalEdgeStyle;rounded=0;orthogonalLoop=1;jettySize=auto;html=1;" parent="1" source="r-9AEfIxWcx4-3-EoZzo-3" target="r-9AEfIxWcx4-3-EoZzo-6" edge="1">
          <mxGeometry relative="1" as="geometry" />
        </mxCell>
        <mxCell id="r-9AEfIxWcx4-3-EoZzo-3" value="&lt;div style=&quot;background-color: rgb(255, 255, 255); font-family: Consolas, &amp;quot;Courier New&amp;quot;, monospace; font-size: 18px; line-height: 24px; white-space: pre;&quot;&gt;UnwindExceptionToCallerStub&lt;/div&gt;" style="rounded=0;whiteSpace=wrap;html=1;" parent="1" vertex="1">
          <mxGeometry x="-5" y="240" width="280" height="60" as="geometry" />
        </mxCell>
        <mxCell id="r-9AEfIxWcx4-3-EoZzo-6" value="&lt;div style=&quot;background-color: rgb(255, 255, 255); font-family: Consolas, &amp;quot;Courier New&amp;quot;, monospace; font-size: 18px; line-height: 24px; white-space: pre;&quot;&gt;从&lt;span style=&quot;color: light-dark(rgb(0, 0, 0), rgb(255, 255, 255));&quot;&gt;c.exceptionHandlerForReturnAddressAddress&lt;/span&gt;&lt;/div&gt;&lt;div style=&quot;background-color: rgb(255, 255, 255); font-family: Consolas, &amp;quot;Courier New&amp;quot;, monospace; font-size: 18px; line-height: 24px; white-space: pre;&quot;&gt;&lt;span style=&quot;color: light-dark(rgb(0, 0, 0), rgb(255, 255, 255));&quot;&gt;（&lt;/span&gt;&lt;span style=&quot;color: light-dark(rgb(0, 0, 0), rgb(255, 255, 255));&quot;&gt;SharedRuntime::raw_exception_handler_for_return_address&lt;/span&gt;&lt;span style=&quot;color: light-dark(rgb(0, 0, 0), rgb(255, 255, 255));&quot;&gt;）处获取&lt;/span&gt;&lt;span style=&quot;color: light-dark(rgb(0, 0, 0), rgb(255, 255, 255));&quot;&gt;handlerInCallerPc。&lt;/span&gt;&lt;/div&gt;&lt;div style=&quot;background-color: rgb(255, 255, 255); font-family: Consolas, &amp;quot;Courier New&amp;quot;, monospace; font-size: 18px; line-height: 24px; white-space: pre;&quot;&gt;&lt;span style=&quot;color: light-dark(rgb(0, 0, 0), rgb(255, 255, 255));&quot;&gt;获取到地址后，在&lt;/span&gt;&lt;span style=&quot;color: light-dark(rgb(0, 0, 0), rgb(255, 255, 255));&quot;&gt;emitJumpToExceptionHandlerInCaller去生成代码跳转到该地址处（&lt;/span&gt;&lt;span style=&quot;color: light-dark(rgb(0, 0, 0), rgb(255, 255, 255));&quot;&gt;generate_catch_exception&lt;/span&gt;&lt;span style=&quot;color: light-dark(rgb(0, 0, 0), rgb(255, 255, 255)); background-color: light-dark(rgb(255, 255, 255), rgb(18, 18, 18));&quot;&gt;）的代码。&lt;/span&gt;&lt;/div&gt;&lt;div style=&quot;background-color: rgb(255, 255, 255); font-family: Consolas, &amp;quot;Courier New&amp;quot;, monospace; font-size: 18px; line-height: 24px; white-space: pre;&quot;&gt;&lt;span style=&quot;color: light-dark(rgb(0, 0, 0), rgb(255, 255, 255));&quot;&gt;这里在跳转时，需要传参，而参数位置需要在&lt;/span&gt;&lt;span style=&quot;color: light-dark(rgb(0, 0, 0), rgb(255, 255, 255));&quot;&gt;LoongArch64HotSpotForeignCallsProvider中初始化&lt;/span&gt;&lt;/div&gt;&lt;div style=&quot;background-color: rgb(255, 255, 255); font-family: Consolas, &amp;quot;Courier New&amp;quot;, monospace; font-size: 18px; line-height: 24px; white-space: pre;&quot;&gt;&lt;span style=&quot;color: light-dark(rgb(0, 0, 0), rgb(255, 255, 255));&quot;&gt;&lt;br&gt;&lt;/span&gt;&lt;/div&gt;" style="rounded=0;whiteSpace=wrap;html=1;" parent="1" vertex="1">
          <mxGeometry x="-360" y="380" width="990" height="190" as="geometry" />
        </mxCell>
        <mxCell id="r-9AEfIxWcx4-3-EoZzo-10" value="" style="edgeStyle=orthogonalEdgeStyle;rounded=0;orthogonalLoop=1;jettySize=auto;html=1;" parent="1" source="r-9AEfIxWcx4-3-EoZzo-8" target="r-9AEfIxWcx4-3-EoZzo-9" edge="1">
          <mxGeometry relative="1" as="geometry" />
        </mxCell>
        <mxCell id="r-9AEfIxWcx4-3-EoZzo-8" value="后置异常处理" style="rounded=0;whiteSpace=wrap;html=1;" parent="1" vertex="1">
          <mxGeometry x="890" y="180" width="120" height="60" as="geometry" />
        </mxCell>
        <mxCell id="r-9AEfIxWcx4-3-EoZzo-12" value="" style="edgeStyle=orthogonalEdgeStyle;rounded=0;orthogonalLoop=1;jettySize=auto;html=1;" parent="1" source="r-9AEfIxWcx4-3-EoZzo-9" target="r-9AEfIxWcx4-3-EoZzo-11" edge="1">
          <mxGeometry relative="1" as="geometry" />
        </mxCell>
        <mxCell id="r-9AEfIxWcx4-3-EoZzo-9" value="&lt;div style=&quot;background-color: rgb(255, 255, 255); font-family: Consolas, &amp;quot;Courier New&amp;quot;, monospace; font-size: 18px; line-height: 24px; white-space: pre;&quot;&gt;ExceptionHandlerStub&lt;/div&gt;" style="whiteSpace=wrap;html=1;rounded=0;" parent="1" vertex="1">
          <mxGeometry x="815" y="320" width="270" height="60" as="geometry" />
        </mxCell>
        <mxCell id="r-9AEfIxWcx4-3-EoZzo-11" value="&lt;div style=&quot;background-color: rgb(255, 255, 255); font-family: Consolas, &amp;quot;Courier New&amp;quot;, monospace; font-size: 18px; line-height: 24px; white-space: pre;&quot;&gt;PatchReturnAddressNode&lt;/div&gt;&lt;div style=&quot;background-color: rgb(255, 255, 255); font-family: Consolas, &amp;quot;Courier New&amp;quot;, monospace; font-size: 18px; line-height: 24px; white-space: pre;&quot;&gt;&lt;div style=&quot;line-height: 24px;&quot;&gt;JVMCIRuntime::exception_handler_for_pc&lt;/div&gt;&lt;div style=&quot;line-height: 24px;&quot;&gt;&lt;div style=&quot;line-height: 24px;&quot;&gt;LoongArch64HotSpotPatchReturnAddressOp&lt;/div&gt;&lt;/div&gt;&lt;/div&gt;" style="whiteSpace=wrap;html=1;rounded=0;" parent="1" vertex="1">
          <mxGeometry x="705" y="460" width="490" height="80" as="geometry" />
        </mxCell>
        <mxCell id="r-9AEfIxWcx4-3-EoZzo-14" value="handle负责决定地址，当上一个栈帧能try时，ra地址回填该地址，退栈。不能时，ra填上一个栈帧的handle" style="whiteSpace=wrap;html=1;" parent="1" vertex="1">
          <mxGeometry x="680" y="580" width="230" height="120" as="geometry" />
        </mxCell>
        <mxCell id="r-9AEfIxWcx4-3-EoZzo-15" value="unwind只会在抛出异常的方法生成" style="whiteSpace=wrap;html=1;" parent="1" vertex="1">
          <mxGeometry x="330" y="640" width="120" height="60" as="geometry" />
        </mxCell>
        <mxCell id="Yd_5fxnbkXkmAITT19aL-1" value="C" style="rounded=0;whiteSpace=wrap;html=1;" parent="1" vertex="1">
          <mxGeometry x="-640" y="730" width="120" height="60" as="geometry" />
        </mxCell>
        <mxCell id="Yd_5fxnbkXkmAITT19aL-2" value="A" style="rounded=0;whiteSpace=wrap;html=1;" parent="1" vertex="1">
          <mxGeometry x="-420" y="600" width="120" height="60" as="geometry" />
        </mxCell>
        <mxCell id="Yd_5fxnbkXkmAITT19aL-3" value="B" style="rounded=0;whiteSpace=wrap;html=1;" parent="1" vertex="1">
          <mxGeometry x="-420" y="660" width="120" height="60" as="geometry" />
        </mxCell>
        <mxCell id="Yd_5fxnbkXkmAITT19aL-4" value="" style="rounded=0;whiteSpace=wrap;html=1;" parent="1" vertex="1">
          <mxGeometry x="-420" y="720" width="120" height="60" as="geometry" />
        </mxCell>
        <mxCell id="EBi-hcrwRFbOIUl8jDD--1" value="&lt;font face=&quot;Verdana&quot; style=&quot;font-size: 16px;&quot;&gt;return address&lt;/font&gt;" style="rounded=0;whiteSpace=wrap;html=1;fillColor=#ffe6cc;strokeColor=#d79b00;" vertex="1" parent="1">
          <mxGeometry x="1020" y="1140" width="170" height="40" as="geometry" />
        </mxCell>
        <mxCell id="EBi-hcrwRFbOIUl8jDD--2" value="&lt;font face=&quot;Verdana&quot; style=&quot;font-size: 16px;&quot;&gt;frame pointer&lt;/font&gt;" style="rounded=0;whiteSpace=wrap;html=1;fillColor=#ffe6cc;strokeColor=#d79b00;" vertex="1" parent="1">
          <mxGeometry x="1020" y="1100" width="170" height="40" as="geometry" />
        </mxCell>
        <mxCell id="EBi-hcrwRFbOIUl8jDD--3" value="&lt;font style=&quot;font-size: 20px;&quot;&gt;.....&lt;/font&gt;" style="rounded=0;whiteSpace=wrap;html=1;fillColor=#ffe6cc;strokeColor=#d79b00;" vertex="1" parent="1">
          <mxGeometry x="1020" y="1180" width="170" height="70" as="geometry" />
        </mxCell>
        <mxCell id="EBi-hcrwRFbOIUl8jDD--5" value="&lt;div style=&quot;font-size: 18px; line-height: 24px; white-space: pre;&quot;&gt;&lt;div style=&quot;&quot;&gt;&lt;font face=&quot;Verdana&quot;&gt;&lt;span style=&quot;color: rgb(0, 0, 255);&quot;&gt;public&lt;/span&gt; &lt;span style=&quot;color: rgb(0, 0, 255);&quot;&gt;void&lt;/span&gt; C(){&lt;/font&gt;&lt;/div&gt;&lt;div style=&quot;&quot;&gt;&lt;font face=&quot;Verdana&quot;&gt;&amp;nbsp; &amp;nbsp; &lt;span style=&quot;color: rgb(0, 0, 255);&quot;&gt;throw&lt;/span&gt; &lt;span style=&quot;color: rgb(0, 0, 255);&quot;&gt;new&lt;/span&gt; Exception();&lt;/font&gt;&lt;/div&gt;&lt;div style=&quot;&quot;&gt;&lt;font face=&quot;Verdana&quot;&gt;}&lt;/font&gt;&lt;/div&gt;&lt;/div&gt;" style="rounded=0;whiteSpace=wrap;html=1;align=left;fillColor=#ffe6cc;strokeColor=#d79b00;" vertex="1" parent="1">
          <mxGeometry x="-60" y="1330" width="380" height="90" as="geometry" />
        </mxCell>
        <mxCell id="EBi-hcrwRFbOIUl8jDD--6" value="&lt;div style=&quot;font-size: 18px; line-height: 24px; white-space: pre;&quot;&gt;&lt;div style=&quot;&quot;&gt;&lt;font face=&quot;Verdana&quot;&gt;&lt;span style=&quot;color: rgb(0, 0, 255);&quot;&gt;public&lt;/span&gt; &lt;span style=&quot;color: rgb(0, 0, 255);&quot;&gt;void&lt;/span&gt; B() {&lt;/font&gt;&lt;/div&gt;&lt;div style=&quot;&quot;&gt;&lt;font face=&quot;Verdana&quot;&gt;&amp;nbsp; &amp;nbsp; &lt;font color=&quot;#0000ff&quot;&gt;...&lt;/font&gt;&lt;/font&gt;&lt;/div&gt;&lt;div style=&quot;&quot;&gt;&lt;font face=&quot;Verdana&quot;&gt;&lt;font color=&quot;#0000ff&quot;&gt;    &lt;/font&gt;&lt;font style=&quot;color: rgb(0, 0, 0);&quot;&gt;C()&lt;/font&gt;&lt;font color=&quot;#0000ff&quot;&gt;;&lt;/font&gt;&lt;/font&gt;&lt;/div&gt;&lt;div style=&quot;&quot;&gt;&lt;font face=&quot;Verdana&quot;&gt;&lt;font color=&quot;#0000ff&quot;&gt;    &lt;/font&gt;&lt;font style=&quot;color: rgb(0, 0, 0);&quot;&gt;...&lt;/font&gt;&lt;/font&gt;&lt;/div&gt;&lt;div style=&quot;&quot;&gt;&lt;font face=&quot;Verdana&quot;&gt;}&lt;/font&gt;&lt;/div&gt;&lt;/div&gt;" style="rounded=0;whiteSpace=wrap;html=1;align=left;" vertex="1" parent="1">
          <mxGeometry x="-60" y="1170" width="380" height="130" as="geometry" />
        </mxCell>
        <mxCell id="EBi-hcrwRFbOIUl8jDD--7" value="&lt;div style=&quot;font-size: 18px; line-height: 24px; white-space: pre;&quot;&gt;&lt;div style=&quot;&quot;&gt;&lt;font face=&quot;Verdana&quot;&gt;&lt;span style=&quot;color: rgb(0, 0, 255);&quot;&gt;public&lt;/span&gt; &lt;span style=&quot;color: rgb(0, 0, 255);&quot;&gt;void&lt;/span&gt; A() {&lt;/font&gt;&lt;/div&gt;&lt;div style=&quot;&quot;&gt;&lt;font face=&quot;Verdana&quot;&gt;&amp;nbsp; &amp;nbsp; &lt;span style=&quot;background-color: rgb(255, 255, 255); color: rgb(0, 0, 255);&quot;&gt;try&lt;/span&gt;&lt;span style=&quot;background-color: rgb(255, 255, 255); color: light-dark(rgb(0, 0, 0), rgb(255, 255, 255));&quot;&gt; {&lt;/span&gt;&lt;/font&gt;&lt;/div&gt;&lt;div style=&quot;line-height: 24px;&quot;&gt;&lt;div style=&quot;background-color: light-dark(rgb(255, 255, 255), rgb(18, 18, 18));&quot;&gt;&lt;font face=&quot;Verdana&quot;&gt;&amp;nbsp; &amp;nbsp;     B();&lt;/font&gt;&lt;/div&gt;&lt;div style=&quot;background-color: light-dark(rgb(255, 255, 255), rgb(18, 18, 18));&quot;&gt;&lt;font face=&quot;Verdana&quot;&gt;    } &lt;span style=&quot;color: rgb(0, 0, 255);&quot;&gt;catch&lt;/span&gt; (&lt;span style=&quot;color: rgb(0, 0, 255);&quot;&gt;Exception&lt;/span&gt; e) {&lt;/font&gt;&lt;/div&gt;&lt;div style=&quot;&quot;&gt;&lt;font face=&quot;Verdana&quot;&gt;&amp;nbsp; &amp;nbsp;     &lt;font style=&quot;color: rgb(0, 0, 0);&quot;&gt;...&lt;/font&gt;&lt;/font&gt;&lt;/div&gt;&lt;/div&gt;&lt;div style=&quot;&quot;&gt;&lt;font face=&quot;Verdana&quot;&gt;&lt;span style=&quot;background-color: rgb(255, 255, 255); color: light-dark(rgb(0, 0, 0), rgb(255, 255, 255));&quot;&gt;    }&lt;/span&gt;&lt;/font&gt;&lt;/div&gt;&lt;div style=&quot;&quot;&gt;&lt;font face=&quot;Verdana&quot;&gt;}&lt;/font&gt;&lt;/div&gt;&lt;/div&gt;" style="rounded=0;whiteSpace=wrap;html=1;align=left;" vertex="1" parent="1">
          <mxGeometry x="-60" y="970" width="380" height="180" as="geometry" />
        </mxCell>
        <mxCell id="EBi-hcrwRFbOIUl8jDD--13" value="" style="rounded=0;whiteSpace=wrap;html=1;fillColor=#ffe6cc;strokeColor=#d79b00;" vertex="1" parent="1">
          <mxGeometry x="427" y="985" width="400" height="495" as="geometry" />
        </mxCell>
        <mxCell id="EBi-hcrwRFbOIUl8jDD--14" value="" style="rounded=0;whiteSpace=wrap;html=1;fillColor=#f5f5f5;fontColor=#333333;strokeColor=#666666;" vertex="1" parent="1">
          <mxGeometry x="511" y="1050" width="256" height="230" as="geometry" />
        </mxCell>
        <mxCell id="EBi-hcrwRFbOIUl8jDD--15" value="&lt;font style=&quot;font-size: 16px;&quot;&gt;ld.wu(scratch, address,0)&lt;/font&gt;" style="rounded=0;whiteSpace=wrap;html=1;" vertex="1" parent="1">
          <mxGeometry x="511" y="1100" width="256" height="30" as="geometry" />
        </mxCell>
        <mxCell id="EBi-hcrwRFbOIUl8jDD--16" value="&lt;b&gt;&lt;font style=&quot;font-size: 22px;&quot;&gt;NMethod C&lt;/font&gt;&lt;/b&gt;" style="text;html=1;align=center;verticalAlign=middle;resizable=0;points=[];autosize=1;strokeColor=none;fillColor=none;" vertex="1" parent="1">
          <mxGeometry x="417" y="950" width="140" height="40" as="geometry" />
        </mxCell>
        <mxCell id="EBi-hcrwRFbOIUl8jDD--17" value="&lt;b&gt;&lt;font style=&quot;font-size: 24px;&quot;&gt;main code&lt;/font&gt;&lt;/b&gt;" style="text;html=1;align=center;verticalAlign=middle;resizable=0;points=[];autosize=1;strokeColor=none;fillColor=none;" vertex="1" parent="1">
          <mxGeometry x="511" y="1000" width="140" height="40" as="geometry" />
        </mxCell>
        <mxCell id="EBi-hcrwRFbOIUl8jDD--18" value="&lt;font style=&quot;font-size: 16px;&quot;&gt;st.d(rd, thread, DeoptionOffset)&lt;/font&gt;" style="rounded=0;whiteSpace=wrap;html=1;" vertex="1" parent="1">
          <mxGeometry x="511" y="1185" width="256" height="30" as="geometry" />
        </mxCell>
        <mxCell id="EBi-hcrwRFbOIUl8jDD--19" value="&lt;font style=&quot;font-size: 16px;&quot;&gt;mov(rd, deoptReasonAndAction)&lt;/font&gt;" style="rounded=0;whiteSpace=wrap;html=1;" vertex="1" parent="1">
          <mxGeometry x="511" y="1155" width="256" height="30" as="geometry" />
        </mxCell>
        <mxCell id="EBi-hcrwRFbOIUl8jDD--20" value="&lt;font style=&quot;font-size: 16px;&quot;&gt;jmp(optStubAddress)&lt;/font&gt;" style="rounded=0;whiteSpace=wrap;html=1;" vertex="1" parent="1">
          <mxGeometry x="511" y="1215" width="256" height="30" as="geometry" />
        </mxCell>
        <mxCell id="EBi-hcrwRFbOIUl8jDD--21" value="&lt;b&gt;&lt;font style=&quot;font-size: 18px;&quot;&gt;...&lt;/font&gt;&lt;/b&gt;" style="text;html=1;align=center;verticalAlign=middle;whiteSpace=wrap;rounded=0;" vertex="1" parent="1">
          <mxGeometry x="609" y="1060" width="60" height="30" as="geometry" />
        </mxCell>
        <mxCell id="EBi-hcrwRFbOIUl8jDD--22" value="&lt;b&gt;&lt;font style=&quot;font-size: 18px;&quot;&gt;...&lt;/font&gt;&lt;/b&gt;" style="text;html=1;align=center;verticalAlign=middle;whiteSpace=wrap;rounded=0;" vertex="1" parent="1">
          <mxGeometry x="609" y="1125" width="60" height="30" as="geometry" />
        </mxCell>
        <mxCell id="EBi-hcrwRFbOIUl8jDD--23" value="&lt;b&gt;&lt;font style=&quot;font-size: 18px;&quot;&gt;...&lt;/font&gt;&lt;/b&gt;" style="text;html=1;align=center;verticalAlign=middle;whiteSpace=wrap;rounded=0;" vertex="1" parent="1">
          <mxGeometry x="609" y="1240" width="60" height="30" as="geometry" />
        </mxCell>
        <mxCell id="EBi-hcrwRFbOIUl8jDD--24" value="&lt;b&gt;&lt;font style=&quot;font-size: 15px;&quot;&gt;address 1&lt;/font&gt;&lt;/b&gt;" style="text;html=1;align=center;verticalAlign=middle;resizable=0;points=[];autosize=1;strokeColor=none;fillColor=none;" vertex="1" parent="1">
          <mxGeometry x="427" y="1100" width="90" height="30" as="geometry" />
        </mxCell>
        <mxCell id="EBi-hcrwRFbOIUl8jDD--25" value="&lt;b&gt;&lt;font style=&quot;font-size: 15px;&quot;&gt;address 2&lt;/font&gt;&lt;/b&gt;" style="text;html=1;align=center;verticalAlign=middle;resizable=0;points=[];autosize=1;strokeColor=none;fillColor=none;" vertex="1" parent="1">
          <mxGeometry x="427" y="1155" width="90" height="30" as="geometry" />
        </mxCell>
        <mxCell id="EBi-hcrwRFbOIUl8jDD--26" value="" style="rounded=0;whiteSpace=wrap;html=1;fillColor=#f5f5f5;fontColor=#333333;strokeColor=#666666;" vertex="1" parent="1">
          <mxGeometry x="511" y="1340" width="256" height="90" as="geometry" />
        </mxCell>
        <mxCell id="EBi-hcrwRFbOIUl8jDD--27" value="&lt;font style=&quot;font-size: 16px;&quot;&gt;address 1&lt;/font&gt;" style="rounded=0;whiteSpace=wrap;html=1;" vertex="1" parent="1">
          <mxGeometry x="511" y="1360" width="126" height="20" as="geometry" />
        </mxCell>
        <mxCell id="EBi-hcrwRFbOIUl8jDD--28" value="&lt;span style=&quot;color: rgb(51, 51, 51); font-weight: 700;&quot;&gt;&lt;font style=&quot;font-size: 22px;&quot;&gt;ImplicitExecptionTable&lt;/font&gt;&lt;/span&gt;" style="text;html=1;align=center;verticalAlign=middle;resizable=0;points=[];autosize=1;strokeColor=none;fillColor=none;" vertex="1" parent="1">
          <mxGeometry x="504" y="1300" width="260" height="40" as="geometry" />
        </mxCell>
        <mxCell id="EBi-hcrwRFbOIUl8jDD--29" value="&lt;b&gt;&lt;font style=&quot;font-size: 18px;&quot;&gt;...&lt;/font&gt;&lt;/b&gt;" style="text;html=1;align=center;verticalAlign=middle;whiteSpace=wrap;rounded=0;" vertex="1" parent="1">
          <mxGeometry x="609" y="1390" width="60" height="30" as="geometry" />
        </mxCell>
        <mxCell id="EBi-hcrwRFbOIUl8jDD--30" value="&lt;font style=&quot;font-size: 16px;&quot;&gt;address 2&lt;/font&gt;" style="rounded=0;whiteSpace=wrap;html=1;" vertex="1" parent="1">
          <mxGeometry x="637" y="1360" width="130" height="20" as="geometry" />
        </mxCell>
        <mxCell id="EBi-hcrwRFbOIUl8jDD--31" value="&lt;font style=&quot;font-size: 28px;&quot;&gt;&lt;b style=&quot;&quot;&gt;Code cache&lt;/b&gt;&lt;/font&gt;" style="text;html=1;align=center;verticalAlign=middle;resizable=0;points=[];autosize=1;strokeColor=none;fillColor=none;" vertex="1" parent="1">
          <mxGeometry x="427" y="890" width="180" height="50" as="geometry" />
        </mxCell>
      </root>
    </mxGraphModel>
  </diagram>
</mxfile>
